<?xml version="1.0" encoding="UTF-8" standalone="no"?>
<!-- Created with Inkscape (http://www.inkscape.org/) -->

<svg
   xmlns:dc="http://purl.org/dc/elements/1.1/"
   xmlns:cc="http://creativecommons.org/ns#"
   xmlns:rdf="http://www.w3.org/1999/02/22-rdf-syntax-ns#"
   xmlns:svg="http://www.w3.org/2000/svg"
   xmlns="http://www.w3.org/2000/svg"
   xmlns:sodipodi="http://sodipodi.sourceforge.net/DTD/sodipodi-0.dtd"
   xmlns:inkscape="http://www.inkscape.org/namespaces/inkscape"
   width="210mm"
   height="210mm"
   viewBox="0 0 210 210"
   version="1.1"
   id="svg8"
   inkscape:version="0.92.4 (5da689c313, 2019-01-14)"
   sodipodi:docname="x-mark.svg">
  <defs
     id="defs2" />
  <sodipodi:namedview
     id="base"
     pagecolor="#ffffff"
     bordercolor="#666666"
     borderopacity="1.0"
     inkscape:pageopacity="0.0"
     inkscape:pageshadow="2"
     inkscape:zoom="0.35"
     inkscape:cx="54.285714"
     inkscape:cy="320"
     inkscape:document-units="mm"
     inkscape:current-layer="layer2"
     showgrid="false"
     inkscape:window-width="1306"
     inkscape:window-height="704"
     inkscape:window-x="60"
     inkscape:window-y="27"
     inkscape:window-maximized="1" />
  <metadata
     id="metadata5">
    <rdf:RDF>
      <cc:Work
         rdf:about="">
        <dc:format>image/svg+xml</dc:format>
        <dc:type
           rdf:resource="http://purl.org/dc/dcmitype/StillImage" />
        <dc:title></dc:title>
      </cc:Work>
    </rdf:RDF>
  </metadata>
  <g
     inkscape:label="Layer 1"
     inkscape:groupmode="layer"
     id="layer1"
     transform="translate(0,-87)"
     style="display:none">
    <path
       style="fill:none;stroke:#000000;stroke-width:0.26458332px;stroke-linecap:butt;stroke-linejoin:miter;stroke-opacity:1"
       d="M 0,87.601195 210.91071,297.75595"
       id="path16"
       inkscape:connector-curvature="0" />
    <path
       style="fill:none;stroke:#000000;stroke-width:0.26458332px;stroke-linecap:butt;stroke-linejoin:miter;stroke-opacity:1"
       d="M 210.15476,87.601195 0.75595238,297"
       id="path18"
       inkscape:connector-curvature="0" />
    <path
       style="fill:none;stroke:#000000;stroke-width:0.26458332px;stroke-linecap:butt;stroke-linejoin:miter;stroke-opacity:1"
       d="M 24.190476,86.845243 212.42262,277.34524"
       id="path20"
       inkscape:connector-curvature="0" />
    <path
       style="fill:none;stroke:#000000;stroke-width:0.26458332px;stroke-linecap:butt;stroke-linejoin:miter;stroke-opacity:1"
       d="m 0,109.52381 188.98809,188.9881"
       id="path22"
       inkscape:connector-curvature="0" />
    <path
       style="fill:none;stroke:#000000;stroke-width:0.26458332px;stroke-linecap:butt;stroke-linejoin:miter;stroke-opacity:1"
       d="M 0,275.83334 192.0119,85.333338"
       id="path24"
       inkscape:connector-curvature="0" />
    <path
       style="fill:none;stroke:#000000;stroke-width:0.26458332px;stroke-linecap:butt;stroke-linejoin:miter;stroke-opacity:1"
       d="M 20.410714,297 210.91071,108.01191"
       id="path26"
       inkscape:connector-curvature="0" />
  </g>
  <g
     inkscape:groupmode="layer"
     id="layer2"
     inkscape:label="Layer 2">
    <path
       style="fill:none;stroke:#000000;stroke-width:0.26458332px;stroke-linecap:butt;stroke-linejoin:miter;stroke-opacity:1"
       d="M 24.190476,-0.154757 106.58928,83.000005 192.0119,-1.666662 210.91071,21.01191 127,104.16667 212.42262,190.34524 188.98809,211.51191 103.56547,126.84524 20.410714,210 0,188.83334 83.15476,105.67857 0,22.52381 C 8.063492,14.964288 16.126984,7.4047653 24.190476,-0.154757 Z"
       id="path29"
       inkscape:connector-curvature="0"
       sodipodi:nodetypes="ccccccccccccc" />
    <path
       style="fill:#999999;stroke-width:2.85714293"
       d="M 559.41857,642.94593 C 475.35263,558.77364 402.90166,487.23347 398.41637,483.96784 l -8.15503,-5.93757 -156.15536,156.136 L 77.950617,790.3023 40.132434,752.4061 2.3142509,714.50993 159.44293,557.40073 316.5716,400.29153 159.26396,242.96473 1.9563166,85.63793 46.558611,44.09121 91.160909,2.5444934 247.09455,159.13471 403.0282,315.72493 562.73823,157.99857 C 650.57874,71.249076 723.54334,-0.10500203 724.88177,-0.56604603 726.2202,-1.02709 742.5246,16.845848 761.11377,39.151593 L 794.91229,79.707496 636.45614,236.17727 478,392.64704 l 14.23657,15.24118 c 7.83014,8.38262 80.43854,81.74702 161.352,163.032 93.11877,93.54631 146.09486,148.76577 144.33486,150.44702 -14.44754,13.80112 -83.07094,74.61926 -84.19574,74.61926 -0.80409,0 -70.2432,-68.86826 -154.30912,-153.04057 z"
       id="path31"
       inkscape:connector-curvature="0"
       transform="scale(0.26458333)" />
  </g>
</svg>
